<svg width="42" height="42" viewBox="0 0 42 42" fill="none" xmlns="http://www.w3.org/2000/svg">
<!--<circle cx="21" cy="21" r="20.5" stroke="white"/>-->
<path d="M21 29C23.1217 29 25.1566 28.1571 26.6569 26.6569C28.1571 25.1566 29 23.1217 29 21C29 18.8783 28.1571 16.8434 26.6569 15.3431C25.1566 13.8429 23.1217 13 21 13C18.8783 13 16.8434 13.8429 15.3431 15.3431C13.8429 16.8434 13 18.8783 13 21C13 23.1217 13.8429 25.1566 15.3431 26.6569C16.8434 28.1571 18.8783 29 21 29ZM21 31C15.477 31 11 26.523 11 21C11 15.477 15.477 11 21 11C26.523 11 31 15.477 31 21C31 26.523 26.523 31 21 31ZM17.89 22.17L15.392 21.391C14.852 21.226 14.849 20.854 15.513 20.587L25.246 16.827C25.811 16.597 26.131 16.888 25.948 17.617L24.291 25.437C24.175 25.994 23.84 26.127 23.375 25.87L20.824 23.982L19.635 25.13C19.513 25.248 19.414 25.349 19.226 25.374C19.039 25.4 18.885 25.344 18.772 25.034L17.902 22.163L17.89 22.171V22.17Z" fill="white"/>
</svg>
